<?xml version="1.0" standalone="no"?>
<!DOCTYPE svg PUBLIC "-//W3C//DTD SVG 20010904//EN"
 "http://www.w3.org/TR/2001/REC-SVG-20010904/DTD/svg10.dtd">
<svg version="1.0" xmlns="http://www.w3.org/2000/svg"
 width="300.000000pt" height="300.000000pt" viewBox="0 0 300.000000 300.000000"
 preserveAspectRatio="xMidYMid meet">
<metadata>
Created by potrace 1.11, written by Peter Selinger 2001-2013
</metadata>
<g transform="translate(0.000000,300.000000) scale(0.100000,-0.100000)"
fill="#000000" stroke="none">
<path d="M1320 2990 c-188 -26 -341 -74 -510 -161 -404 -208 -683 -580 -781
-1039 -33 -151 -33 -429 0 -580 98 -459 376 -829 781 -1039 132 -68 249 -110
400 -142 151 -33 429 -33 580 0 151 32 268 74 400 142 405 210 683 580 781
1039 33 151 33 429 0 580 -98 459 -376 829 -781 1039 -214 111 -403 159 -650
166 -85 2 -184 0 -220 -5z m-183 -732 c22 -62 113 -330 203 -595 90 -266 166
-483 169 -483 3 0 92 267 196 593 l190 592 273 3 272 2 0 -870 0 -870 -180 0
-180 0 0 618 c0 341 -4 610 -9 602 -5 -8 -102 -286 -216 -618 l-208 -603 -150
3 -149 3 -214 610 -213 610 0 -612 -1 -613 -180 0 -180 0 0 870 0 870 269 0
269 0 39 -112z"/>
</g>
</svg>
